<svg xmlns="http://www.w3.org/2000/svg" version="1.1" xmlns:xlink="http://www.w3.org/1999/xlink" width="512" height="512" x="0" y="0" viewBox="0 0 128 128" style="enable-background:new 0 0 512 512" xml:space="preserve" class=""><g><g fill="#7b7384"><path d="M64.153 73.436A17.72 17.72 0 0 1 71.791 87.2c.194 8-5.524 15.882-17.439 15.676-5.4-.324-9.021-3.076-11.792-7.335-1.465-2.252-2.709-4.844-4.139-7.4a24.67 24.67 0 0 0-4.483-6.234 15.632 15.632 0 0 0-10.3-4.2 16.743 16.743 0 0 1 12.142 1.67c4.339 2.43 7.312 6.563 10.28 10.227 2.348 2.9 4.47 5.589 8.257 5.313 5.789-.151 8.858-3.51 8.669-7.395s-3.388-7.716-9.227-9.213a4.486 4.486 0 0 1-.859-8.365c.216-.111.728-.321 1.43-.631 1.631-.721 5.321-2.247 5.986-5.866.339-1.822-.163-2.991-1.322-3.24a3.954 3.954 0 0 0-4.369 1.758 4.268 4.268 0 0 1-7.7-3.68c2.4-5.122 8.665-7.625 13.841-6.589a10.492 10.492 0 0 1 6.167 3.655c1.758 2.173 2.82 5.333 2.063 9.658a14.916 14.916 0 0 1-4.843 8.427z" fill="#f0cb33" opacity="1" data-original="#7b7384"></path><path d="M85.082 90.674c12.5.187 18.436-8.743 19.2-18.391.464-5.837-1.085-11.915-4.1-16.045-2.79-3.822-6.714-6.147-11.325-5.971-3.658.287-6.142 1.441-7.827 3.406a12.532 12.532 0 0 0-2.446 4.3 52.9 52.9 0 0 0-1.379 5.636c-.819 3.957-1.758 7.934-6.716 10.458a12.407 12.407 0 0 0 8.3-3.928 28.776 28.776 0 0 0 4.675-7.247c1.242-2.385 2.228-4.6 5.486-4.332 1.764.029 3.028 1.257 4.048 2.752A16.585 16.585 0 0 1 95.389 71.6c-.4 5.337-3.338 10.531-10.25 10.542a4.269 4.269 0 1 0-.057 8.537zM60.16 39.658a19.337 19.337 0 0 0 9.61 5.956 16.438 16.438 0 0 0 4.875.559 23.216 23.216 0 0 0 14.6-6.063 2.94 2.94 0 0 0-3.631-4.625c-3.142 2.108-7.155 2.686-11.086 2.739a22.29 22.29 0 0 1-6.712-.652 16.064 16.064 0 0 1-4.3-1.712 2.534 2.534 0 0 0-3.355 3.8zM74.633 25.119a3.783 3.783 0 1 1-3.784 3.781 3.785 3.785 0 0 1 3.784-3.781z" fill="#f0cb33" opacity="1" data-original="#7b7384"></path></g></g></svg>